<svg width="245" height="44" viewBox="0 0 245 44" fill="none" xmlns="http://www.w3.org/2000/svg">
<path d="M21.707 0C9.73219 0 0 9.73219 0 21.707C0 33.6818 9.73219 43.414 21.707 43.414C33.6818 43.414 43.414 33.6818 43.414 21.707C43.414 9.73219 33.6818 0 21.707 0ZM29.0273 3.9775C33.7242 5.92394 37.4901 9.68988 39.4365 14.3867L35.0359 16.2062C33.5549 12.6518 30.7622 9.81682 27.2078 8.37815L29.0273 3.9775ZM14.3867 3.9775L16.2062 8.37815C12.6518 9.85913 9.81682 12.6518 8.37815 16.2062L3.9775 14.3867C5.92394 9.64756 9.64756 5.92394 14.3867 3.9775ZM14.3867 39.4365C9.68988 37.4901 5.92394 33.7242 3.9775 29.0273L8.37815 27.2078C9.85913 30.7622 12.6518 33.5972 16.2062 35.0359L14.3867 39.4365ZM9.81682 21.707C9.81682 15.1484 15.1484 9.81682 21.707 9.81682C28.2657 9.81682 33.5972 15.1484 33.5972 21.707C33.5972 28.2657 28.2657 33.5972 21.707 33.5972C15.1484 33.5972 9.81682 28.2657 9.81682 21.707ZM29.0273 39.4365L27.2078 35.0359C30.7622 33.5549 33.5972 30.7622 35.0359 27.2078L39.4365 29.0273C37.4901 33.7665 33.7665 37.4901 29.0273 39.4365Z" fill="url(#paint0_linear_1_2570)"/>
<path d="M22.5339 16.6833L23.3696 17.0154C23.4361 17.0413 23.4805 17.1096 23.4805 17.185C23.4805 17.2604 23.4361 17.3287 23.3696 17.3546L22.5339 17.6868L22.2213 18.5749C22.1969 18.6456 22.1327 18.6927 22.0617 18.6927C21.9908 18.6927 21.9265 18.6456 21.9021 18.5749L21.5895 17.6868L20.7538 17.3546C20.6873 17.3287 20.643 17.2604 20.643 17.185C20.643 17.1096 20.6873 17.0413 20.7538 17.0154L21.5895 16.6833L21.9021 15.7952C21.9265 15.7245 21.9908 15.6774 22.0617 15.6774C22.1327 15.6774 22.1969 15.7245 22.2213 15.7952L22.5339 16.6833ZM26.7148 24.9918C27.1293 25.4324 27.1293 26.1485 26.7148 26.5914L25.9478 27.4064C25.5332 27.847 24.8593 27.847 24.4426 27.4064L15.9899 18.4218C15.5753 17.9812 15.5753 17.2651 15.9899 16.8222L16.7569 16.0095C17.1714 15.569 17.8453 15.569 18.2621 16.0095L26.7148 24.9918ZM16.9941 17.6232L19.3217 20.0967L19.8383 19.5478L17.5106 17.0743L16.9941 17.6232ZM27.5705 18.4383C27.6703 18.4783 27.7368 18.5796 27.7368 18.6927C27.7368 18.8057 27.6703 18.907 27.5705 18.9471L26.318 19.4465L25.848 20.7775C25.8103 20.8835 25.715 20.9542 25.6086 20.9542C25.5022 20.9542 25.4069 20.8835 25.3692 20.7775L24.8992 19.4465L23.6467 18.9471C23.547 18.907 23.4805 18.8057 23.4805 18.6927C23.4805 18.5796 23.547 18.4783 23.6467 18.4383L24.8992 17.9388L25.3692 16.6079C25.4069 16.5019 25.5022 16.4312 25.6086 16.4312C25.715 16.4312 25.8103 16.5019 25.848 16.6079L26.318 17.9388L27.5705 18.4383ZM19.7673 24.4689C19.8671 24.5089 19.9336 24.6102 19.9336 24.7233C19.9336 24.8364 19.8671 24.9377 19.7673 24.9777L18.5148 25.4771L18.0449 26.8081C18.0072 26.9141 17.9118 26.9848 17.8054 26.9848C17.699 26.9848 17.6037 26.9141 17.566 26.8081L17.0961 25.4771L15.8436 24.9777C15.7438 24.9377 15.6773 24.8364 15.6773 24.7233C15.6773 24.6102 15.7438 24.5089 15.8436 24.4689L17.0961 23.9695L17.566 22.6385C17.6037 22.5325 17.699 22.4618 17.8054 22.4618C17.9118 22.4618 18.0072 22.5325 18.0449 22.6385L18.5148 23.9695L19.7673 24.4689Z" fill="url(#paint1_linear_1_2570)"/>
<path d="M60.4781 35.4588L52.2762 7.95591H57.2801L61.6445 22.4786C61.8702 23.2311 62.0834 24.0338 62.2841 24.8866C62.4847 25.7143 62.6854 26.7301 62.8861 27.9341C63.1118 26.705 63.325 25.6892 63.5257 24.8866C63.7514 24.0588 63.9772 23.2562 64.2029 22.4786L68.5672 7.95591H73.8722L78.1237 22.4786C78.3494 23.2562 78.5626 24.0714 78.7633 24.9242C78.989 25.777 79.2147 26.7803 79.4405 27.9341C79.6913 26.6549 79.9171 25.614 80.1177 24.8113C80.3435 23.9836 80.5567 23.2311 80.7573 22.5539L85.1969 7.95591H90.088L81.7355 35.4588H77.0702L71.2009 15.443L65.1811 35.4588H60.4781Z" fill="#0D0D0D"/>
<path d="M92.6523 35.4588V16.8727H97.2424V35.4588H92.6523ZM94.9097 13.148C94.1321 13.148 93.4675 12.8846 92.9156 12.3579C92.3889 11.8061 92.1255 11.1414 92.1255 10.3638C92.1255 9.58626 92.3889 8.93412 92.9156 8.40739C93.4675 7.88066 94.1321 7.61729 94.9097 7.61729C95.6873 7.61729 96.3394 7.88066 96.8661 8.40739C97.4179 8.93412 97.6939 9.58626 97.6939 10.3638C97.6939 11.1414 97.4179 11.8061 96.8661 12.3579C96.3394 12.8846 95.6873 13.148 94.9097 13.148Z" fill="#0D0D0D"/>
<path d="M115.604 35.4588H100.63V31.6965L109.886 20.7103H100.63V16.8727H115.604V20.6727L106.236 31.6212H115.604V35.4588Z" fill="#0D0D0D"/>
<path d="M124.546 35.9479C122.59 35.9479 121.034 35.4212 119.881 34.3677C118.752 33.2892 118.188 31.8846 118.188 30.1539C118.188 28.4483 118.777 27.0938 119.956 26.0905C121.16 25.0621 122.865 24.4602 125.073 24.2846L130.641 23.8331V23.4192C130.641 22.5664 130.478 21.8892 130.152 21.3876C129.851 20.8608 129.412 20.4846 128.835 20.2589C128.258 20.008 127.581 19.8826 126.803 19.8826C125.449 19.8826 124.408 20.1585 123.681 20.7103C122.953 21.2371 122.59 21.9895 122.59 22.9678H118.677C118.677 21.6133 119.015 20.447 119.693 19.4688C120.395 18.4655 121.373 17.6879 122.627 17.1361C123.906 16.5843 125.374 16.3084 127.029 16.3084C128.71 16.3084 130.152 16.6094 131.356 17.2113C132.56 17.7882 133.488 18.6661 134.14 19.845C134.792 20.9988 135.118 22.441 135.118 24.1717V35.4588H131.093L130.754 32.7123C130.353 33.6654 129.575 34.443 128.421 35.045C127.293 35.6469 126.001 35.9479 124.546 35.9479ZM126.013 32.4866C127.443 32.4866 128.572 32.0852 129.399 31.2826C130.252 30.48 130.679 29.3638 130.679 27.9341V26.9559L126.803 27.2569C125.374 27.3823 124.358 27.6833 123.756 28.1598C123.154 28.6113 122.853 29.2133 122.853 29.9658C122.853 30.7935 123.129 31.4205 123.681 31.8469C124.232 32.2733 125.01 32.4866 126.013 32.4866Z" fill="#0D0D0D"/>
<path d="M150.915 16.7975V21.0489H149.222C147.541 21.0489 146.224 21.5004 145.271 22.4034C144.318 23.2813 143.841 24.6232 143.841 26.4291V35.4588H139.251V16.9103H143.578L143.954 20.748H143.503C143.754 19.5189 144.343 18.5156 145.271 17.7381C146.199 16.9605 147.403 16.5717 148.883 16.5717C149.209 16.5717 149.535 16.5843 149.861 16.6094C150.187 16.6344 150.538 16.6971 150.915 16.7975Z" fill="#0D0D0D"/>
<path d="M160.658 35.9479C158.852 35.9479 157.297 35.5466 155.993 34.744C154.714 33.9162 153.71 32.775 152.983 31.3202C152.281 29.8654 151.93 28.1724 151.93 26.241C151.93 24.3097 152.281 22.6041 152.983 21.1242C153.71 19.6192 154.751 18.4404 156.106 17.5876C157.46 16.7348 159.066 16.3084 160.922 16.3084C162.226 16.3084 163.417 16.5717 164.496 17.0985C165.574 17.6001 166.402 18.315 166.979 19.243V7.4668H171.532V35.4588H167.318L167.017 32.5618C166.465 33.6153 165.612 34.443 164.458 35.045C163.33 35.6469 162.063 35.9479 160.658 35.9479ZM161.674 31.7341C162.753 31.7341 163.681 31.5083 164.458 31.0568C165.236 30.5803 165.838 29.9156 166.264 29.0628C166.716 28.1849 166.941 27.1942 166.941 26.0905C166.941 24.9618 166.716 23.9836 166.264 23.1559C165.838 22.3031 165.236 21.6384 164.458 21.1618C163.681 20.6602 162.753 20.4093 161.674 20.4093C160.621 20.4093 159.705 20.6602 158.928 21.1618C158.15 21.6384 157.548 22.3031 157.122 23.1559C156.72 24.0087 156.52 24.9869 156.52 26.0905C156.52 27.1942 156.72 28.1724 157.122 29.0252C157.548 29.878 158.15 30.5427 158.928 31.0192C159.705 31.4958 160.621 31.7341 161.674 31.7341Z" fill="#0D0D0D"/>
<path d="M176.39 29.8153H180.755C180.78 30.6179 181.081 31.2575 181.658 31.7341C182.234 32.2106 183.037 32.4489 184.065 32.4489C185.169 32.4489 185.997 32.2483 186.549 31.8469C187.126 31.4456 187.414 30.9064 187.414 30.2291C187.414 29.7776 187.264 29.3763 186.963 29.0252C186.662 28.674 186.097 28.4107 185.269 28.2351L181.921 27.445C180.24 27.0687 178.986 26.4668 178.159 25.639C177.356 24.7862 176.955 23.6199 176.955 22.14C176.955 20.9361 177.268 19.8952 177.895 19.0173C178.547 18.1394 179.425 17.4747 180.529 17.0232C181.633 16.5466 182.899 16.3084 184.329 16.3084C185.708 16.3084 186.925 16.5592 187.978 17.0608C189.032 17.5625 189.847 18.2648 190.424 19.1678C191.026 20.0707 191.339 21.1242 191.364 22.3282H187C187 21.5255 186.749 20.8985 186.248 20.447C185.746 19.9704 185.044 19.7321 184.141 19.7321C183.238 19.7321 182.535 19.9328 182.034 20.3341C181.532 20.7354 181.281 21.2747 181.281 21.9519C181.281 22.9803 182.084 23.6826 183.689 24.0588L187.038 24.8489C188.593 25.2001 189.759 25.7644 190.537 26.542C191.339 27.3196 191.741 28.4232 191.741 29.8529C191.741 31.107 191.415 32.1981 190.763 33.1262C190.11 34.0291 189.195 34.7314 188.016 35.2331C186.837 35.7096 185.483 35.9479 183.953 35.9479C181.645 35.9479 179.801 35.3836 178.422 34.2549C177.067 33.1262 176.39 31.6463 176.39 29.8153Z" fill="#0D0D0D"/>
<path d="M198.321 35.4588H193.731V7.4668H198.358V19.2806C198.935 18.3777 199.738 17.6628 200.766 17.1361C201.82 16.5843 203.024 16.3084 204.378 16.3084C206.661 16.3084 208.391 16.9981 209.57 18.3777C210.774 19.7572 211.376 21.6384 211.376 24.0212V35.4588H206.786V25.1123C206.786 24.0588 206.623 23.1935 206.297 22.5163C205.971 21.839 205.519 21.3374 204.943 21.0113C204.366 20.6602 203.688 20.4846 202.911 20.4846C201.958 20.4846 201.13 20.6978 200.428 21.1242C199.75 21.5255 199.224 22.0899 198.847 22.8173C198.496 23.5447 198.321 24.3724 198.321 25.3004V35.4588Z" fill="#0D0D0D"/>
<path d="M213.29 26.1281C213.29 24.1968 213.716 22.5037 214.569 21.0489C215.422 19.5691 216.601 18.4153 218.106 17.5876C219.611 16.7598 221.316 16.346 223.223 16.346C225.154 16.346 226.86 16.7598 228.339 17.5876C229.844 18.4153 231.023 19.5691 231.876 21.0489C232.729 22.5037 233.155 24.1968 233.155 26.1281C233.155 28.0595 232.729 29.7651 231.876 31.245C231.023 32.6998 229.844 33.841 228.339 34.6687C226.86 35.4964 225.154 35.9103 223.223 35.9103C221.316 35.9103 219.611 35.4964 218.106 34.6687C216.601 33.841 215.422 32.6998 214.569 31.245C213.716 29.7651 213.29 28.0595 213.29 26.1281ZM217.88 26.1281C217.88 27.2569 218.106 28.2476 218.557 29.1004C219.034 29.9532 219.661 30.6179 220.438 31.0945C221.241 31.571 222.169 31.8093 223.223 31.8093C224.276 31.8093 225.204 31.571 226.007 31.0945C226.809 30.6179 227.436 29.9532 227.888 29.1004C228.339 28.2476 228.565 27.2569 228.565 26.1281C228.565 24.9744 228.339 23.9836 227.888 23.1559C227.436 22.3031 226.809 21.6384 226.007 21.1618C225.204 20.6853 224.276 20.447 223.223 20.447C222.169 20.447 221.241 20.6853 220.438 21.1618C219.661 21.6384 219.034 22.3031 218.557 23.1559C218.106 23.9836 217.88 24.9744 217.88 26.1281Z" fill="#0D0D0D"/>
<path d="M233.261 16.8727H245V20.7103H233.261V16.8727ZM241.426 35.4588H236.836V11.0787H241.426V35.4588Z" fill="#0D0D0D"/>
<defs>
<linearGradient id="paint0_linear_1_2570" x1="21.707" y1="0" x2="21.707" y2="43.414" gradientUnits="userSpaceOnUse">
<stop stop-color="#5237F8"/>
<stop offset="0.0001" stop-color="#6033EF"/>
<stop offset="1" stop-color="#FF008A"/>
</linearGradient>
<linearGradient id="paint1_linear_1_2570" x1="21.707" y1="15.6774" x2="21.707" y2="27.7368" gradientUnits="userSpaceOnUse">
<stop stop-color="#5237F8"/>
<stop offset="0.0001" stop-color="#6033EF"/>
<stop offset="1" stop-color="#FF008A"/>
</linearGradient>
</defs>
</svg>
