<svg width="33" height="33" viewBox="0 0 33 33" fill="none" xmlns="http://www.w3.org/2000/svg">
<mask id="mask0_225_2360" style="mask-type:luminance" maskUnits="userSpaceOnUse" x="0" y="0" width="33" height="33">
<path d="M16.1464 32.5645C24.9829 32.5645 32.1464 25.401 32.1464 16.5645C32.1464 7.7279 24.9829 0.564453 16.1464 0.564453C7.30981 0.564453 0.146362 7.7279 0.146362 16.5645C0.146362 25.401 7.30981 32.5645 16.1464 32.5645Z" fill="white"/>
</mask>
<g mask="url(#mask0_225_2360)">
<path d="M2.69165 0.564453V20.2008H9.85529L16.1462 9.29173H32.1462V0.564453H2.69165Z" fill="#DB4437"/>
<path d="M2.69165 0.564453V20.2008H9.85529L16.1462 9.29173H32.1462V0.564453H2.69165Z" fill="url(#paint0_linear_225_2360)"/>
<path d="M0.146362 32.5645H15.3827L22.4736 25.4736V20.2009H9.81909L0.146362 3.56454V32.5645Z" fill="#0F9D58"/>
<path d="M0.146362 32.5645H15.3827L22.4736 25.4736V20.2009H9.81909L0.146362 3.56454V32.5645Z" fill="url(#paint1_linear_225_2360)"/>
<path d="M16.1463 9.29233L22.4373 20.2014L15.4191 32.5651H32.1463V9.29233H16.1463Z" fill="#FFCD40"/>
<path d="M16.1463 9.29233L22.4373 20.2014L15.4191 32.5651H32.1463V9.29233H16.1463Z" fill="url(#paint2_linear_225_2360)"/>
<path d="M10.0189 20.1461L2.69165 7.90973L9.78256 20.237L10.0189 20.1461Z" fill="#3E2723" fill-opacity="0.1"/>
<path d="M22.2917 20.4368L22.1462 20.364L15.3644 32.5459L22.328 20.364L22.2917 20.4368Z" fill="#263238" fill-opacity="0.1"/>
<path d="M16.1462 9.29233V13.1105L30.4008 9.29233H16.1462Z" fill="url(#paint3_radial_225_2360)"/>
<path d="M2.69165 7.92764L13.0917 18.3276L9.85529 20.2004L2.69165 7.92764Z" fill="url(#paint4_radial_225_2360)"/>
<path d="M15.3824 32.5639L19.2006 18.3276L22.437 20.2003L15.3824 32.5639Z" fill="url(#paint5_radial_225_2360)"/>
<path d="M16.1461 23.8378C20.1628 23.8378 23.4189 20.5817 23.4189 16.5651C23.4189 12.5484 20.1628 9.29233 16.1461 9.29233C12.1295 9.29233 8.87341 12.5484 8.87341 16.5651C8.87341 20.5817 12.1295 23.8378 16.1461 23.8378Z" fill="#F1F1F1"/>
<path d="M16.1467 22.3825C19.36 22.3825 21.9649 19.7776 21.9649 16.5643C21.9649 13.351 19.36 10.7462 16.1467 10.7462C12.9334 10.7462 10.3285 13.351 10.3285 16.5643C10.3285 19.7776 12.9334 22.3825 16.1467 22.3825Z" fill="#4285F4"/>
<path d="M16.1464 32.5645C24.9829 32.5645 32.1464 25.401 32.1464 16.5645C32.1464 7.7279 24.9829 0.564453 16.1464 0.564453C7.30981 0.564453 0.146362 7.7279 0.146362 16.5645C0.146362 25.401 7.30981 32.5645 16.1464 32.5645Z" fill="url(#paint6_radial_225_2360)"/>
<path d="M22.4373 20.2006C21.798 21.3027 20.8803 22.2176 19.7763 22.8535C18.6722 23.4894 17.4205 23.8241 16.1464 23.8241C14.8723 23.8241 13.6205 23.4894 12.5164 22.8535C11.4124 22.2176 10.4948 21.3027 9.85545 20.2006L0.146362 3.74609L9.85545 20.3825C10.4948 21.4846 11.4124 22.3994 12.5164 23.0353C13.6205 23.6712 14.8723 24.0059 16.1464 24.0059C17.4205 24.0059 18.6722 23.6712 19.7763 23.0353C20.8803 22.3994 21.798 21.4846 22.4373 20.3825V20.2006Z" fill="white" fill-opacity="0.1"/>
<path d="M16.3282 9.29233H16.2373C18.1661 9.29233 20.016 10.0586 21.3799 11.4225C22.7438 12.7864 23.51 14.6362 23.51 16.5651C23.51 18.4939 22.7438 20.3437 21.3799 21.7076C20.016 23.0716 18.1661 23.8378 16.2373 23.8378H16.3282C20.3282 23.8378 23.6009 20.5651 23.6009 16.5651C23.6009 12.5651 20.3282 9.29233 16.3282 9.29233ZM16.1464 32.3832C20.3741 32.3833 24.4301 30.7101 27.4281 27.7291C30.426 24.7482 32.1223 20.7018 32.1464 16.4741V16.5651C32.1464 20.8085 30.4607 24.8782 27.4601 27.8788C24.4595 30.8793 20.3898 32.5651 16.1464 32.5651C11.9029 32.5651 7.83324 30.8793 4.83265 27.8788C1.83207 24.8782 0.146362 20.8085 0.146362 16.5651V16.4741C0.170384 20.7018 1.86669 24.7482 4.86467 27.7291C7.86266 30.7101 11.9186 32.3833 16.1464 32.3832Z" fill="#3E2723" fill-opacity="0.1"/>
<path d="M22.51 20.4372C23.0178 19.5659 23.3354 18.597 23.4419 17.5943C23.5484 16.5915 23.4415 15.5775 23.1282 14.619C23.4109 15.5458 23.4955 16.5218 23.3764 17.4834C23.2574 18.445 22.9374 19.3709 22.4373 20.2008L15.6009 32.5645L22.5464 20.4735L22.51 20.4372ZM16.1464 0.746271C20.3741 0.746203 24.4301 2.41943 27.4281 5.40038C30.426 8.38132 32.1223 12.4277 32.1464 16.6554V16.5645C32.1464 12.321 30.4607 8.25133 27.4601 5.25074C24.4595 2.25016 20.3898 0.564453 16.1464 0.564453C11.9029 0.564453 7.83324 2.25016 4.83265 5.25074C1.83207 8.25133 0.146362 12.321 0.146362 16.5645V16.6554C0.170384 12.4277 1.86669 8.38132 4.86467 5.40038C7.86266 2.41943 11.9186 0.746203 16.1464 0.746271Z" fill="white" fill-opacity="0.2"/>
<path d="M16.1461 9.10953C12.1461 9.10953 8.87341 12.3823 8.87341 16.3823V16.5641C8.87341 12.5641 12.1461 9.29135 16.1461 9.29135H32.1461V9.10953H16.1461Z" fill="#3E2723" fill-opacity="0.2"/>
</g>
<defs>
<linearGradient id="paint0_linear_225_2360" x1="4.01892" y1="12.9281" x2="13.5644" y2="7.36445" gradientUnits="userSpaceOnUse">
<stop stop-color="#A52714" stop-opacity="0.6"/>
<stop offset="0.7" stop-color="#A52714" stop-opacity="0"/>
</linearGradient>
<linearGradient id="paint1_linear_225_2360" x1="18.8555" y1="29.2009" x2="8.23727" y2="22.9827" gradientUnits="userSpaceOnUse">
<stop stop-color="#055524" stop-opacity="0.4"/>
<stop offset="0.3" stop-color="#055524" stop-opacity="0"/>
</linearGradient>
<linearGradient id="paint2_linear_225_2360" x1="21.0372" y1="8.34687" x2="23.71" y2="20.0378" gradientUnits="userSpaceOnUse">
<stop stop-color="#EA6100" stop-opacity="0.3"/>
<stop offset="0.7" stop-color="#EA6100" stop-opacity="0"/>
</linearGradient>
<radialGradient id="paint3_radial_225_2360" cx="0" cy="0" r="1" gradientUnits="userSpaceOnUse" gradientTransform="translate(15.4553 9.29233) scale(15.2909)">
<stop stop-color="#3E2723" stop-opacity="0.2"/>
<stop offset="1" stop-color="#3E2723" stop-opacity="0"/>
</radialGradient>
<radialGradient id="paint4_radial_225_2360" cx="0" cy="0" r="1" gradientUnits="userSpaceOnUse" gradientTransform="translate(2.67347 7.92764) scale(14.1818)">
<stop stop-color="#3E2723" stop-opacity="0.2"/>
<stop offset="1" stop-color="#3E2723" stop-opacity="0"/>
</radialGradient>
<radialGradient id="paint5_radial_225_2360" cx="0" cy="0" r="1" gradientUnits="userSpaceOnUse" gradientTransform="translate(16.1097 16.5821) scale(15.9818 15.9818)">
<stop stop-color="#263238" stop-opacity="0.2"/>
<stop offset="1" stop-color="#263238" stop-opacity="0"/>
</radialGradient>
<radialGradient id="paint6_radial_225_2360" cx="0" cy="0" r="1" gradientUnits="userSpaceOnUse" gradientTransform="translate(4.92818 4.92809) scale(32.1455)">
<stop stop-color="white" stop-opacity="0.1"/>
<stop offset="1" stop-color="white" stop-opacity="0"/>
</radialGradient>
</defs>
</svg>
