<svg width="21" height="22" viewBox="0 0 21 22" fill="none" xmlns="http://www.w3.org/2000/svg">
<path d="M10.313 0.929932C4.72301 0.929932 0.179688 5.52722 0.179688 11.1839C0.179688 16.8406 4.72301 21.4379 10.313 21.4379C15.9037 21.4379 20.4464 16.8406 20.4464 11.1839C20.4464 5.52722 15.9037 0.929932 10.313 0.929932ZM13.7304 2.80884C15.923 3.72832 17.681 5.50725 18.5897 7.72595L16.5357 8.58546C15.8443 6.90644 14.5404 5.56722 12.881 4.88763L13.7304 2.80884ZM6.89635 2.80884L7.74568 4.88763C6.08635 5.58719 4.76302 6.90644 4.09102 8.58546L2.03702 7.72595C2.94569 5.48728 4.68368 3.72832 6.89635 2.80884ZM6.89635 19.559C4.70368 18.6395 2.94569 16.8605 2.03702 14.6418L4.09102 13.7824C4.78235 15.4614 6.08635 16.8006 7.74568 17.4802L6.89635 19.559ZM4.76302 11.1839C4.76302 8.08572 7.25168 5.56722 10.313 5.56722C13.375 5.56722 15.8637 8.08572 15.8637 11.1839C15.8637 14.2821 13.375 16.8006 10.313 16.8006C7.25168 16.8006 4.76302 14.2821 4.76302 11.1839ZM13.7304 19.559L12.881 17.4802C14.5404 16.7806 15.8637 15.4614 16.5357 13.7824L18.5897 14.6418C17.681 16.8806 15.943 18.6395 13.7304 19.559Z" fill="#3A3A3A"/>
</svg>
