<svg width="39" height="37" viewBox="0 0 39 37" fill="none" xmlns="http://www.w3.org/2000/svg">
<path d="M21.1299 3.02441C22.9111 3.02895 23.8152 3.03802 24.5958 3.05919L24.903 3.06978C25.2576 3.08188 25.6075 3.097 26.0303 3.11515C27.715 3.19076 28.8645 3.4448 29.8731 3.81832C30.9181 4.20241 31.7984 4.72261 32.6787 5.56188C33.4838 6.31782 34.1068 7.23223 34.5043 8.24149C34.8954 9.20476 35.1614 10.3026 35.2406 11.9131C35.2596 12.3153 35.2754 12.6495 35.288 12.9898L35.2976 13.2831C35.3213 14.0271 35.3308 14.8906 35.334 16.5918L35.3356 17.7199V19.7009C35.3394 20.8039 35.3273 21.9069 35.2991 23.0096L35.2896 23.3029C35.277 23.6432 35.2611 23.9774 35.2421 24.3796C35.163 25.9901 34.8938 27.0865 34.5043 28.0512C34.108 29.0611 33.4848 29.9757 32.6787 30.7309C31.887 31.4995 30.9296 32.0945 29.8731 32.4744C28.8645 32.8479 27.715 33.102 26.0303 33.1776C25.6546 33.1945 25.2788 33.2096 24.903 33.2229L24.5958 33.232C23.8152 33.2532 22.9111 33.2638 21.1299 33.2668L19.9487 33.2683H17.8761C16.7207 33.2721 15.5653 33.2605 14.4102 33.2335L14.103 33.2245C13.7272 33.2109 13.3514 33.1952 12.9757 33.1776C11.291 33.102 10.1415 32.8479 9.13138 32.4744C8.07478 32.0954 7.11773 31.5003 6.3273 30.7309C5.52145 29.9752 4.8979 29.0607 4.50013 28.0512C4.10905 27.088 3.84305 25.9901 3.76388 24.3796C3.74624 24.0208 3.73041 23.6619 3.71638 23.3029L3.70847 23.0096C3.67929 21.9069 3.66609 20.8039 3.66888 19.7009V16.5918C3.66446 15.4888 3.67608 14.3858 3.70372 13.2831L3.7148 12.9898C3.72747 12.6495 3.7433 12.3153 3.7623 11.9131C3.84147 10.3026 4.10747 9.20627 4.49855 8.24149C4.89615 7.2312 5.52094 6.3165 6.32888 5.56188C7.11911 4.79289 8.07553 4.19786 9.13138 3.81832C10.1415 3.4448 11.2895 3.19076 12.9757 3.11515C13.3969 3.097 13.7484 3.08188 14.103 3.06978L14.4102 3.06071C15.5648 3.03384 16.7197 3.02224 17.8745 3.02593L21.1299 3.02441ZM19.5022 10.5854C17.4026 10.5854 15.389 11.382 13.9043 12.7999C12.4196 14.2179 11.5855 16.1411 11.5855 18.1464C11.5855 20.1517 12.4196 22.0748 13.9043 23.4928C15.389 24.9107 17.4026 25.7073 19.5022 25.7073C21.6018 25.7073 23.6155 24.9107 25.1001 23.4928C26.5848 22.0748 27.4189 20.1517 27.4189 18.1464C27.4189 16.1411 26.5848 14.2179 25.1001 12.7999C23.6155 11.382 21.6018 10.5854 19.5022 10.5854ZM19.5022 13.6098C20.126 13.6097 20.7437 13.7269 21.32 13.9548C21.8964 14.1827 22.4201 14.5168 22.8612 14.938C23.3024 15.3592 23.6523 15.8592 23.8911 16.4096C24.1299 16.96 24.2529 17.5499 24.253 18.1456C24.2531 18.7414 24.1304 19.3313 23.8917 19.8817C23.6531 20.4322 23.3033 20.9324 22.8623 21.3537C22.4213 21.775 21.8977 22.1093 21.3215 22.3373C20.7452 22.5654 20.1276 22.6829 19.5038 22.683C18.244 22.683 17.0358 22.205 16.145 21.3542C15.2542 20.5034 14.7538 19.3495 14.7538 18.1464C14.7538 16.9432 15.2542 15.7893 16.145 14.9385C17.0358 14.0877 18.244 13.6098 19.5038 13.6098M27.8163 8.3171C27.2914 8.3171 26.788 8.51625 26.4168 8.87074C26.0457 9.22523 25.8371 9.70602 25.8371 10.2073C25.8371 10.7087 26.0457 11.1895 26.4168 11.5439C26.788 11.8984 27.2914 12.0976 27.8163 12.0976C28.3412 12.0976 28.8446 11.8984 29.2158 11.5439C29.587 11.1895 29.7955 10.7087 29.7955 10.2073C29.7955 9.70602 29.587 9.22523 29.2158 8.87074C28.8446 8.51625 28.3412 8.3171 27.8163 8.3171Z" fill="#0D0D0D" fill-opacity="0.8"/>
</svg>
