<svg width="39" height="37" viewBox="0 0 39 37" fill="none" xmlns="http://www.w3.org/2000/svg">
<path d="M26.7826 8.80101C25.7003 7.62093 25.1038 6.10542 25.1043 4.53662H20.2118V23.2878C20.174 24.3026 19.7255 25.2637 18.9606 25.9689C18.1957 26.674 17.1741 27.0682 16.1109 27.0683C13.8626 27.0683 11.9943 25.3142 11.9943 23.1366C11.9943 20.5356 14.6226 18.5849 17.3301 19.3864V14.6078C11.8676 13.9122 7.08594 17.9649 7.08594 23.1366C7.08594 28.1722 11.4559 31.7561 16.0951 31.7561C21.0668 31.7561 25.1043 27.9 25.1043 23.1366V13.6249C27.0882 14.9857 29.4701 15.7157 31.9126 15.7117V11.0391C31.9126 11.0391 28.9359 11.1752 26.7826 8.80101Z" fill="#0D0D0D" fill-opacity="0.8"/>
</svg>
